<svg xmlns="http://www.w3.org/2000/svg" viewBox="0 0 100 100" width="100" height="100">
  <defs>
    <linearGradient id="logo-grad-shared" x1="0%" y1="0%" x2="100%" y2="100%">
      <stop offset="0%" stopColor="#a855f7" />
      <stop offset="100%" stopColor="#2563eb" />
    </linearGradient>
  </defs>
  <!-- 'i' -->
  <rect x="22" y="44" width="10" height="36" rx="5" fill="url(#logo-grad-shared)" />
  <circle cx="27" cy="28" r="6" fill="url(#logo-grad-shared)" />
  
  <!-- 'o' -->
  <path 
    d="M 62,30 A 25,25 0 1,0 62,80 A 25,25 0 1,0 62,30 Z M 62,41 A 14,14 0 1,1 62,69 A 14,14 0 1,1 62,41 Z" 
    fill="url(#logo-grad-shared)" 
    fillRule="evenodd" 
  />
  
  <!-- Sparkle star at top right of 'o' -->
  <path 
    d="M 82,22 Q 82,32 92,32 Q 82,32 82,42 Q 82,32 72,32 Q 82,32 82,22 Z" 
    fill="#818cf8" 
  />
</svg>